<svg xmlns="http://www.w3.org/2000/svg" width="256" height="256" viewBox="0 0 100 100"><rect width="100" height="100" rx="20" fill="#191919"></rect><path fill="#f878ea" d="M24.90 77.81L23.30 82.49Q11.58 79.20 11.35 67.51L11.35 67.51L11.35 60.44Q11.35 52.97 4.94 52.97L4.94 52.97L4.94 47.06Q11.35 47.06 11.35 39.56L11.35 39.56L11.35 32.52Q11.45 26.54 14.46 22.86Q17.46 19.17 23.30 17.51L23.30 17.51L24.90 22.16Q19.15 24.02 18.96 32.32L18.96 32.32L18.96 39.49Q18.96 46.96 13.21 49.98L13.21 49.98Q18.96 53.04 18.96 60.58L18.96 60.58L18.96 67.65Q19.15 75.95 24.90 77.81L24.90 77.81ZM69.16 22.19L69.16 70.54L60.76 70.54L39.21 36.24L39.21 70.54L30.81 70.54L30.81 22.19L39.21 22.19L60.82 56.62L60.82 22.19L69.16 22.19ZM76.66 82.49L75.07 77.81Q80.91 75.92 81.04 67.45L81.04 67.45L81.04 60.54Q81.04 52.87 87.09 50.02L87.09 50.02Q81.04 47.16 81.04 39.39L81.04 39.39L81.04 32.52Q80.91 24.05 75.07 22.16L75.07 22.16L76.66 17.51Q82.71 19.20 85.66 23.01Q88.62 26.81 88.62 32.95L88.62 32.95L88.62 39.59Q88.62 47.06 95.06 47.06L95.06 47.06L95.06 52.97Q88.62 52.97 88.62 60.44L88.62 60.44L88.62 66.98Q88.62 73.19 85.64 76.99Q82.67 80.80 76.66 82.49L76.66 82.49Z"></path></svg>